HIERARCHY
ROOT Hips
{
    OFFSET 0.000000 0.000000 0.000000
    CHANNELS 6 Xposition Yposition Zposition Zrotation Xrotation Yrotation
    JOINT Spine
    {
        OFFSET -0.000000 7.305679 0.000000
        CHANNELS 3 Zrotation Xrotation Yrotation
        JOINT Spine1
        {
            OFFSET -0.000000 20.356625 0.000000
            CHANNELS 3 Zrotation Xrotation Yrotation
            JOINT Neck
            {
                OFFSET -0.000000 22.138498 0.000000
                CHANNELS 3 Zrotation Xrotation Yrotation
                JOINT Head
                {
                    OFFSET -0.000000 13.809516 1.781873
                    CHANNELS 3 Zrotation Xrotation Yrotation
                    End Site
                    {
                        OFFSET -0.000000 17.818729 0.000000
                    }
                }
            }
            JOINT LeftShoulder
            {
                OFFSET 3.599131 17.989975 0.023592
                CHANNELS 3 Zrotation Xrotation Yrotation
                JOINT LeftArm
                {
                    OFFSET 12.560995 0.000000 0.000000
                    CHANNELS 3 Zrotation Xrotation Yrotation
                    JOINT LeftForeArm
                    {
                        OFFSET 22.903347 0.000000 0.000000
                        CHANNELS 3 Zrotation Xrotation Yrotation
                        JOINT LeftHand
                        {
                            OFFSET 21.865294 0.000000 0.000000
                            CHANNELS 3 Zrotation Xrotation Yrotation
                            JOINT LeftHandThumb1
                            {
                                OFFSET 1.853706 -2.106484 2.949078
                                CHANNELS 3 Zrotation Xrotation Yrotation
                                JOINT LeftHandThumb2
                                {
                                    OFFSET 2.049154 0.000000 1.336405
                                    CHANNELS 3 Zrotation Xrotation Yrotation
                                    JOINT LeftHandThumb3
                                    {
                                        OFFSET 2.672809 0.000000 0.000000
                                        CHANNELS 3 Zrotation Xrotation Yrotation
                                        End Site
                                        {
                                            OFFSET 2.381303 0.000000 0.000000
                                        }
                                    }
                                }
                            }
                            JOINT LeftHandIndex1
                            {
                                OFFSET 7.583345 0.000000 2.949078
                                CHANNELS 3 Zrotation Xrotation Yrotation
                                JOINT LeftHandIndex2
                                {
                                    OFFSET 4.454682 0.000000 0.000000
                                    CHANNELS 3 Zrotation Xrotation Yrotation
                                    JOINT LeftHandIndex3
                                    {
                                        OFFSET 2.227341 0.000000 0.000000
                                        CHANNELS 3 Zrotation Xrotation Yrotation
                                        End Site
                                        {
                                            OFFSET 1.984419 0.000000 0.000000
                                        }
                                    }
                                }
                            }
                            JOINT LeftHandMiddle1
                            {
                                OFFSET 7.583345 0.000000 0.977409
                                CHANNELS 3 Zrotation Xrotation Yrotation
                                JOINT LeftHandMiddle2
                                {
                                    OFFSET 4.900151 0.000000 0.000000
                                    CHANNELS 3 Zrotation Xrotation Yrotation
                                    JOINT LeftHandMiddle3
                                    {
                                        OFFSET 2.672809 0.000000 0.000000
                                        CHANNELS 3 Zrotation Xrotation Yrotation
                                        End Site
                                        {
                                            OFFSET 2.381303 0.000000 0.000000
                                        }
                                    }
                                }
                            }
                            JOINT LeftHandRing1
                            {
                                OFFSET 7.162047 0.000000 -0.977409
                                CHANNELS 3 Zrotation Xrotation Yrotation
                                JOINT LeftHandRing2
                                {
                                    OFFSET 4.454682 0.000000 0.000000
                                    CHANNELS 3 Zrotation Xrotation Yrotation
                                    JOINT LeftHandRing3
                                    {
                                        OFFSET 2.227341 0.000000 0.000000
                                        CHANNELS 3 Zrotation Xrotation Yrotation
                                        End Site
                                        {
                                            OFFSET 1.984419 0.000000 0.000000
                                        }
                                    }
                                }
                            }
                            JOINT LeftHandPinky1
                            {
                                OFFSET 6.740750 0.000000 -2.949078
                                CHANNELS 3 Zrotation Xrotation Yrotation
                                JOINT LeftHandPinky2
                                {
                                    OFFSET 3.563746 0.000000 0.000000
                                    CHANNELS 3 Zrotation Xrotation Yrotation
                                    JOINT LeftHandPinky3
                                    {
                                        OFFSET 1.781873 0.000000 0.000000
                                        CHANNELS 3 Zrotation Xrotation Yrotation
                                        End Site
                                        {
                                            OFFSET 1.587536 0.000000 0.000000
                                        }
                                    }
                                }
                            }
                        }
                    }
                }
            }
            JOINT RightShoulder
            {
                OFFSET -3.506995 17.989975 0.023592
                CHANNELS 3 Zrotation Xrotation Yrotation
                JOINT RightArm
                {
                    OFFSET -12.560995 0.000000 0.000000
                    CHANNELS 3 Zrotation Xrotation Yrotation
                    JOINT RightForeArm
                    {
                        OFFSET -22.903347 0.000000 0.000000
                        CHANNELS 3 Zrotation Xrotation Yrotation
                        JOINT RightHand
                        {
                            OFFSET -21.865294 0.000000 0.000000
                            CHANNELS 3 Zrotation Xrotation Yrotation
                            JOINT RightHandThumb1
                            {
                                OFFSET -1.853706 -2.106484 2.949078
                                CHANNELS 3 Zrotation Xrotation Yrotation
                                JOINT RightHandThumb2
                                {
                                    OFFSET -2.049154 0.000000 1.336405
                                    CHANNELS 3 Zrotation Xrotation Yrotation
                                    JOINT RightHandThumb3
                                    {
                                        OFFSET -2.672809 0.000000 0.000000
                                        CHANNELS 3 Zrotation Xrotation Yrotation
                                        End Site
                                        {
                                            OFFSET -2.381303 0.000000 0.000000
                                        }
                                    }
                                }
                            }
                            JOINT RightHandIndex1
                            {
                                OFFSET -7.583345 0.000000 2.949078
                                CHANNELS 3 Zrotation Xrotation Yrotation
                                JOINT RightHandIndex2
                                {
                                    OFFSET -4.454682 0.000000 0.000000
                                    CHANNELS 3 Zrotation Xrotation Yrotation
                                    JOINT RightHandIndex3
                                    {
                                        OFFSET -2.227341 0.000000 0.000000
                                        CHANNELS 3 Zrotation Xrotation Yrotation
                                        End Site
                                        {
                                            OFFSET -1.984419 0.000000 0.000000
                                        }
                                    }
                                }
                            }
                            JOINT RightHandMiddle1
                            {
                                OFFSET -7.583345 0.000000 0.977409
                                CHANNELS 3 Zrotation Xrotation Yrotation
                                JOINT RightHandMiddle2
                                {
                                    OFFSET -4.900151 0.000000 0.000000
                                    CHANNELS 3 Zrotation Xrotation Yrotation
                                    JOINT RightHandMiddle3
                                    {
                                        OFFSET -2.672809 0.000000 0.000000
                                        CHANNELS 3 Zrotation Xrotation Yrotation
                                        End Site
                                        {
                                            OFFSET -2.381303 0.000000 0.000000
                                        }
                                    }
                                }
                            }
                            JOINT RightHandRing1
                            {
                                OFFSET -7.162047 0.000000 -0.977409
                                CHANNELS 3 Zrotation Xrotation Yrotation
                                JOINT RightHandRing2
                                {
                                    OFFSET -4.454682 0.000000 0.000000
                                    CHANNELS 3 Zrotation Xrotation Yrotation
                                    JOINT RightHandRing3
                                    {
                                        OFFSET -2.227341 0.000000 0.000000
                                        CHANNELS 3 Zrotation Xrotation Yrotation
                                        End Site
                                        {
                                            OFFSET -1.984419 0.000000 0.000000
                                        }
                                    }
                                }
                            }
                            JOINT RightHandPinky1
                            {
                                OFFSET -6.740750 0.000000 -2.949078
                                CHANNELS 3 Zrotation Xrotation Yrotation
                                JOINT RightHandPinky2
                                {
                                    OFFSET -3.563746 0.000000 0.000000
                                    CHANNELS 3 Zrotation Xrotation Yrotation
                                    JOINT RightHandPinky3
                                    {
                                        OFFSET -1.781873 0.000000 0.000000
                                        CHANNELS 3 Zrotation Xrotation Yrotation
                                        End Site
                                        {
                                            OFFSET -1.587536 0.000000 0.000000
                                        }
                                    }
                                }
                            }
                        }
                    }
                }
            }
        }
    }
    JOINT LeftUpLeg
    {
        OFFSET 8.909365 0.000000 0.000000
        CHANNELS 3 Zrotation Xrotation Yrotation
        JOINT LeftLeg
        {
            OFFSET -0.000000 -38.765560 0.000000
            CHANNELS 3 Zrotation Xrotation Yrotation
            JOINT LeftFoot
            {
                OFFSET -0.000000 -35.244961 0.000000
                CHANNELS 3 Zrotation Xrotation Yrotation
                JOINT LeftToeBase
                {
                    OFFSET -0.000000 -5.791087 13.364048
                    CHANNELS 3 Zrotation Xrotation Yrotation
                    End Site
                    {
                        OFFSET -0.000000 0.000000 3.563746
                    }
                }
            }
        }
    }
    JOINT RightUpLeg
    {
        OFFSET -8.909365 0.000000 0.000000
        CHANNELS 3 Zrotation Xrotation Yrotation
        JOINT RightLeg
        {
            OFFSET -0.000000 -38.765560 0.000000
            CHANNELS 3 Zrotation Xrotation Yrotation
            JOINT RightFoot
            {
                OFFSET -0.000000 -35.244961 0.000000
                CHANNELS 3 Zrotation Xrotation Yrotation
                JOINT RightToeBase
                {
                    OFFSET -0.000000 -5.791087 13.364048
                    CHANNELS 3 Zrotation Xrotation Yrotation
                    End Site
                    {
                        OFFSET -0.000000 0.000000 3.563746
                    }
                }
            }
        }
    }
}
MOTION
Frames:    4
Frame Time:    0.008333
-12.588295    78.335266    280.950989    -1.021376    -5.789656    3.483789    6.798997    -3.586816    7.699540    -0.610099    6.733767    2.533330    -0.986394    12.388827    -9.649960    -1.482242    0.019791    -10.019824    6.020888    10.888660    -0.251392    -95.529076    25.156900    8.261440    16.563200    -7.701954    -14.995959    -1.379618    -31.384951    2.691186    -2.336146    5.954686    4.702725    -0.000000    0.000000    5.676391    -0.000000    0.000000    11.352781    -15.446774    4.428621    -15.612681    -32.108433    0.000000    0.000000    -16.054216    0.000000    0.000000    -28.263556    2.294812    -8.028698    -56.684933    0.000000    0.000000    -28.342463    0.000000    0.000000    -40.686417    -1.443145    -1.106806    -81.261429    0.000000    0.000000    -40.630714    0.000000    0.000000    -52.994137    -6.732351    5.049489    -106.582657    0.000000    0.000000    -53.291328    0.000000    0.000000    -3.354892    -4.540462    2.698742    84.801239    44.803776    -2.552979    -11.958865    -53.664665    7.241949    -12.963388    -51.334282    -13.696089    -0.794862    1.673668    -3.132617    0.000000    0.000000    -3.580549    0.000000    0.000000    -7.161098    9.076319    0.000000    -0.000000    18.152637    0.000000    -0.000000    9.076319    0.000000    -0.000000    20.189970    -1.987646    -3.229478    40.557903    0.000000    -0.000000    20.278952    0.000000    -0.000000    31.200171    -4.557931    -6.021687    62.963177    0.000000    -0.000000    31.481583    0.000000    -0.000000    42.460583    -7.710590    -8.341417    86.047386    0.000000    -0.000000    43.023693    0.000000    -0.000000    7.782851    -8.932290    1.501682    -6.441816    66.012634    10.577788    -16.851572    -1.589257    -14.081806    0.508739    -0.629197    -1.352676    -1.999327    -12.872065    6.234229    1.719482    17.324982    -10.770226    3.448534    0.554927    2.804743    0.040710    -0.868146    -0.152921    
-12.445597    78.199654    280.544037    -0.773433    -5.770441    2.993834    7.305296    -3.673869    8.022746    -1.726164    6.489282    2.689959    -1.034542    12.945042    -9.531538    -0.837351    0.103300    -9.995572    5.556415    10.812798    -0.055277    -95.198708    24.793692    8.271171    15.573421    -8.883116    -13.198872    -1.687359    -31.868471    3.050508    -2.261651    5.942848    4.778831    -0.000000    0.000000    5.725912    -0.000000    0.000000    11.451823    -15.441750    4.422596    -15.597582    -32.095535    0.000000    0.000000    -16.047770    0.000000    0.000000    -28.381504    2.213143    -7.933350    -56.907162    0.000000    0.000000    -28.453585    0.000000    0.000000    -40.912491    -1.630321    -0.957312    -81.718796    0.000000    0.000000    -40.859398    0.000000    0.000000    -53.319267    -7.048786    5.222570    -107.282295    0.000000    0.000000    -53.641148    0.000000    0.000000    -3.679944    -4.733260    2.643248    84.968109    45.374451    -1.824169    -12.677563    -52.446846    7.401903    -11.093258    -50.526585    -11.890548    -0.843996    1.646347    -3.118152    0.000000    0.000000    -3.563005    0.000000    0.000000    -7.126012    9.244394    0.000000    -0.000000    18.488789    0.000000    -0.000000    9.244394    0.000000    -0.000000    20.364807    -1.964334    -3.169581    40.902065    0.000000    -0.000000    20.451029    0.000000    -0.000000    31.385155    -4.500655    -5.906928    63.315342    0.000000    -0.000000    31.657665    0.000000    -0.000000    42.659248    -7.608573    -8.176891    86.407799    0.000000    -0.000000    43.203896    0.000000    -0.000000    6.799961    -7.757955    1.188171    -6.264074    65.473808    10.404650    -16.818306    -1.806728    -14.387511    0.509812    -0.614744    -1.353238    -2.246092    -13.817430    6.431775    1.714010    18.426619    -10.318856    3.581714    0.414087    2.706459    0.043368    -0.882622    -0.158631    
-12.300320    78.038422    280.125885    -0.521327    -5.724503    2.472886    7.796624    -3.763956    8.356447    -2.924148    6.219184    2.854994    -0.857379    13.467387    -9.446425    -0.332403    0.205618    -9.932118    5.239078    10.705946    0.190079    -94.892517    24.397532    8.241479    14.686127    -9.727293    -11.373695    -1.991438    -32.243759    3.376904    -2.217681    5.951782    4.845597    -0.000000    0.000000    5.781424    -0.000000    0.000000    11.562846    -15.488857    4.426345    -15.562695    -32.188038    0.000000    0.000000    -16.094019    0.000000    0.000000    -28.551203    2.119436    -7.810193    -57.231651    0.000000    0.000000    -28.615833    0.000000    0.000000    -41.186592    -1.852561    -0.777267    -82.275269    0.000000    0.000000    -41.137642    0.000000    0.000000    -53.686729    -7.423624    5.424324    -108.077797    0.000000    0.000000    -54.038895    0.000000    0.000000    -3.892456    -4.934923    2.621202    84.983398    46.015549    -1.072880    -13.353106    -51.129101    7.563846    -9.427979    -49.544102    -10.268329    -0.857478    1.616136    -3.078286    0.000000    0.000000    -3.518008    0.000000    0.000000    -7.036016    9.438005    0.000000    -0.000000    18.876011    0.000000    -0.000000    9.438005    0.000000    -0.000000    20.554064    -1.931279    -3.094586    41.273434    0.000000    -0.000000    20.636717    0.000000    -0.000000    31.574316    -4.420658    -5.764545    63.670845    0.000000    -0.000000    31.835428    0.000000    -0.000000    42.852177    -7.467833    -7.975129    86.746971    0.000000    -0.000000    43.373486    0.000000    -0.000000    5.818161    -6.594403    0.879436    -6.238938    64.829445    10.473131    -16.780449    -2.068116    -14.584143    0.509678    -0.628733    -1.354961    -2.489819    -14.867136    6.588720    1.710617    19.637436    -9.822370    3.705451    0.234565    2.637599    0.047267    -0.893061    -0.165887    
-12.152714    77.848000    279.695190    -0.260756    -5.649754    1.920767    8.300297    -3.846230    8.692012    -4.116314    5.936495    3.015190    -0.449814    13.688571    -9.434348    -0.626089    0.756237    -9.777021    4.888493    10.591859    0.387036    -94.520638    24.031990    8.274041    13.870704    -10.423161    -9.670822    -2.293329    -32.486450    3.708345    -2.196712    5.976186    4.905125    -0.000000    0.000000    5.844491    -0.000000    0.000000    11.688981    -15.586423    4.437912    -15.503663    -32.381676    0.000000    0.000000    -16.190836    0.000000    0.000000    -28.761084    2.018617    -7.664364    -57.636402    0.000000    0.000000    -28.818195    0.000000    0.000000    -41.488773    -2.094980    -0.578952    -82.891113    0.000000    0.000000    -41.445549    0.000000    0.000000    -54.069427    -7.829485    5.638061    -108.911110    0.000000    0.000000    -54.455559    0.000000    0.000000    -4.175011    -5.193552    2.552571    84.941963    46.615112    -0.208059    -14.027811    -49.524574    7.622602    -8.025593    -48.486732    -8.828365    -0.846418    1.586430    -3.024850    0.000000    0.000000    -3.457508    0.000000    0.000000    -6.915017    9.627534    0.000000    -0.000000    19.255068    0.000000    -0.000000    9.627534    0.000000    -0.000000    20.735174    -1.892490    -3.012911    41.627842    0.000000    -0.000000    20.813913    0.000000    -0.000000    31.751625    -4.327847    -5.610174    64.000587    0.000000    -0.000000    32.000294    0.000000    -0.000000    43.029640    -7.305926    -7.757581    87.051315    0.000000    -0.000000    43.525658    0.000000    -0.000000    4.833127    -5.454496    0.577406    -6.369865    64.098618    10.770461    -16.763445    -2.394732    -14.652656    0.507525    -0.695763    -1.359446    -2.733453    -16.021357    6.716208    1.711863    20.948889    -9.318794    3.816893    0.022389    2.625735    0.052199    -0.899745    -0.174391    
